<svg xmlns="http://www.w3.org/2000/svg" xmlns:xlink="http://www.w3.org/1999/xlink" width="136.96" height="101.742" viewBox="0 0 136.96 101.742">
  <defs>
    <linearGradient id="linear-gradient" y1="0.5" x2="1" y2="0.5" gradientUnits="objectBoundingBox">
      <stop offset="0" stop-color="#fbbf4a"/>
      <stop offset="1" stop-color="#eb5e28"/>
    </linearGradient>
    <linearGradient id="linear-gradient-2" x1="-1.086" y1="0.994" x2="-0.086" y2="0.994" xlink:href="#linear-gradient"/>
  </defs>
  <g id="tradey_logo" transform="translate(-117.164 -287.64)">
    <path id="Path_1" data-name="Path 1" d="M117.467,327.231a25.183,25.183,0,0,1,3.777-5.754,28.9,28.9,0,0,1,7.075-5.693,49.9,49.9,0,0,1,8.825-4.294,75.594,75.594,0,0,1,9.778-3.1,99.177,99.177,0,0,1,10.254-2.027,104.7,104.7,0,0,1,14.907-1.074q-.061,2.98-.118,5.963L194.024,299.8,171.965,287.64V293.9c-1.6-.047-3.717-.064-6.2.061a77.01,77.01,0,0,0-14.19,2.027,73.178,73.178,0,0,0-13.238,4.531,51.475,51.475,0,0,0-9.66,5.487c-2.885,2.115-6.443,4.781-9.062,9.42a18.123,18.123,0,0,0-2.267,6.2A16.523,16.523,0,0,0,117.467,327.231Z" fill="url(#linear-gradient)"/>
    <path id="Path_2" data-name="Path 2" d="M335.247,321a25.184,25.184,0,0,1-3.777,5.754,28.9,28.9,0,0,1-7.075,5.693,49.9,49.9,0,0,1-8.825,4.294,75.584,75.584,0,0,1-9.778,3.1,99.173,99.173,0,0,1-10.254,2.027,104.7,104.7,0,0,1-14.907,1.074q.061-2.98.118-5.963L258.69,348.428l22.059,12.163v-6.261c1.6.047,3.717.064,6.2-.061a77.012,77.012,0,0,0,14.19-2.027,73.181,73.181,0,0,0,13.238-4.531,51.48,51.48,0,0,0,9.66-5.487c2.885-2.115,6.443-4.781,9.062-9.42a18.123,18.123,0,0,0,2.267-6.2A16.7,16.7,0,0,0,335.247,321Z" transform="translate(-93.709 -22.089)" fill="url(#linear-gradient-2)"/>
    <rect id="Rectangle_10" data-name="Rectangle 10" width="136.958" height="42.135" transform="translate(117.166 347.247)" fill="none"/>
    <text id="tradey" transform="translate(117.164 375.009)" fill="#252422" font-size="37" font-family="Montserrat-SemiBold, Montserrat" font-weight="600"><tspan x="0" y="0">tradey</tspan></text>
  </g>
</svg>
